<svg width="5" height="4" viewBox="0 0 5 4" fill="none" xmlns="http://www.w3.org/2000/svg">
<path d="M2.46877 0.03125C2.21025 0.03125 1.95171 0.0909093 1.71307 0.190341C1.47444 0.289773 1.25569 0.428978 1.07671 0.607955C0.897736 0.786932 0.758523 1.00568 0.65909 1.24432C0.559657 1.48295 0.5 1.74148 0.5 2C0.5 2.25852 0.559657 2.51705 0.65909 2.75568C0.758523 2.99432 0.897736 3.21307 1.07671 3.39205C1.25569 3.57102 1.47444 3.71023 1.71307 3.80966C1.95171 3.90909 2.21025 3.96875 2.46877 3.96875C2.7273 3.98864 2.98582 3.92898 3.22446 3.84943C3.4631 3.75 3.68185 3.6108 3.88071 3.43182C4.05969 3.25284 4.21878 3.03409 4.29832 2.77557C4.39776 2.53693 4.43754 2.27841 4.41765 2.01989C4.41765 1.76136 4.37788 1.50284 4.27844 1.2642C4.17901 1.02557 4.03981 0.806818 3.86083 0.627841C3.68185 0.448864 3.4631 0.309659 3.22446 0.210228C2.98582 0.071023 2.7273 0.03125 2.46877 0.03125Z" fill="#00136F"/>
</svg>
