<svg width="4" height="5" viewBox="0 0 4 5" fill="none" xmlns="http://www.w3.org/2000/svg">
<path d="M1.97441 0.474365C1.71589 0.474365 1.45737 0.534022 1.21873 0.633454C0.980098 0.732885 0.761347 0.872091 0.58237 1.05107C0.403394 1.23005 0.264195 1.44879 0.164764 1.68743C0.0653326 1.92607 0.00567627 2.18459 0.00567627 2.44311C0.00567627 2.70164 0.0653326 2.96016 0.164764 3.1988C0.264195 3.43743 0.403394 3.65618 0.58237 3.83516C0.761347 4.01414 0.980098 4.15334 1.21873 4.25277C1.45737 4.3522 1.71589 4.41186 1.97441 4.41186C2.23293 4.41186 2.49146 4.3522 2.7301 4.25277C2.96873 4.15334 3.18747 4.01414 3.36645 3.83516C3.54542 3.65618 3.68463 3.43743 3.78406 3.1988C3.8835 2.96016 3.94315 2.70164 3.94315 2.44311C3.96304 2.18459 3.90338 1.92607 3.82384 1.66755C3.72441 1.42891 3.5852 1.21016 3.40622 1.0113C3.22724 0.832319 3.0085 0.673227 2.74998 0.593682C2.49146 0.514136 2.23293 0.474365 1.97441 0.474365Z" fill="#00136F"/>
</svg>
