<svg width="6" height="7" viewBox="0 0 6 7" fill="none" xmlns="http://www.w3.org/2000/svg">
<path d="M2.75 0.724365C2.39204 0.724365 2.03409 0.784024 1.69602 0.923229C1.35795 1.06243 1.05966 1.2613 0.801133 1.51982C0.54261 1.77834 0.343745 2.07664 0.20454 2.41471C0.0653355 2.75278 0.00567627 3.09084 0.00567627 3.46869C0.00567627 3.82664 0.0653355 4.18459 0.20454 4.52266C0.343745 4.86073 0.54261 5.15903 0.801133 5.41755C1.05966 5.67607 1.35795 5.87494 1.69602 6.01414C2.03409 6.15335 2.37216 6.21301 2.75 6.21301C3.12784 6.21301 3.46591 6.15335 3.80398 6.01414C4.14205 5.87494 4.44034 5.67607 4.69887 5.41755C4.95739 5.15903 5.15625 4.86073 5.29546 4.52266C5.43466 4.18459 5.49432 3.84653 5.49432 3.46869C5.49432 3.11073 5.43466 2.75278 5.29546 2.41471C5.15625 2.07664 4.95739 1.77834 4.69887 1.51982C4.44034 1.2613 4.14205 1.06243 3.80398 0.923229C3.46591 0.784024 3.10796 0.724365 2.75 0.724365Z" fill="#00136F"/>
</svg>
