<svg width="7" height="7" viewBox="0 0 7 7" fill="none" xmlns="http://www.w3.org/2000/svg">
<path d="M3.44317 0C3.02556 0 2.60793 0.0795463 2.23009 0.238637C1.85225 0.397728 1.49431 0.636364 1.19601 0.934659C0.897718 1.23295 0.678968 1.57102 0.499991 1.96875C0.3409 2.36648 0.261353 2.7642 0.261353 3.18182C0.261353 3.59943 0.3409 4.01704 0.499991 4.39488C0.659082 4.79261 0.897718 5.13068 1.19601 5.42897C1.49431 5.72727 1.83237 5.94602 2.23009 6.125C2.62782 6.28409 3.02556 6.36363 3.44317 6.36363C3.86078 6.36363 4.27839 6.28409 4.65623 6.125C5.05396 5.9659 5.39203 5.72727 5.69032 5.42897C5.98862 5.13068 6.20737 4.79261 6.38635 4.39488C6.54544 3.99716 6.62498 3.59943 6.62498 3.18182C6.62498 2.7642 6.54544 2.36648 6.38635 1.96875C6.22726 1.57102 5.98862 1.23295 5.69032 0.934659C5.39203 0.636364 5.05396 0.417614 4.65623 0.238637C4.2585 0.05966 3.86078 0 3.44317 0Z" fill="#00136F"/>
</svg>
